<svg xmlns="http://www.w3.org/2000/svg" viewBox="0 0 28 19.88"><defs><style>.cls-1{fill:#fff;}</style></defs><title>Recurso 1</title><g id="Capa_2" data-name="Capa 2"><g id="Layer_1" data-name="Layer 1"><path class="cls-1" d="M27.72,4.3a6.1,6.1,0,0,0-1.11-2.8A4,4,0,0,0,23.8.3C19.88,0,14,0,14,0h0S8.12,0,4.2.29A4,4,0,0,0,1.39,1.5,6.1,6.1,0,0,0,.28,4.3,43.81,43.81,0,0,0,0,8.88V11a43.81,43.81,0,0,0,.28,4.58,6.14,6.14,0,0,0,1.11,2.81A4.77,4.77,0,0,0,4.48,19.6c2.24.22,9.52.28,9.52.28s5.88,0,9.8-.3a4,4,0,0,0,2.81-1.2,6.14,6.14,0,0,0,1.11-2.81A43.62,43.62,0,0,0,28,11V8.88A43.81,43.81,0,0,0,27.72,4.3ZM11.08,13.89v-8L18.52,9.8Z"/></g></g></svg>